<?xml version="1.0" encoding="UTF-8"?>
<svg version="1.1" xmlns="http://www.w3.org/2000/svg" width="960" height="1056">
<path d="M0 0 C316.8 0 633.6 0 960 0 C960.061875 83.655 960.12375 167.31 960.1875 253.5 C960.21481201 279.88646484 960.24212402 306.27292969 960.27026367 333.45898438 C960.28381348 365.75097656 960.28381348 365.75097656 960.28633118 380.88195801 C960.28930206 392.11111494 960.30218894 403.34021536 960.32002028 414.56935458 C960.33800805 426.05395099 960.34424752 437.5384997 960.34033485 449.02311221 C960.33854076 455.24110929 960.34122656 461.45900399 960.35764539 467.67698193 C960.42120644 492.96241386 960.16624299 517.88415798 957 543 C956.89040652 543.89215745 956.78081303 544.7843149 956.66789854 545.70350742 C956.11374811 550.17287723 955.47844336 554.61820887 954.75 559.0625 C954.43639526 561.0110791 954.43639526 561.0110791 954.11645508 562.99902344 C939.30946802 652.90686986 899.71074826 737.53307599 825.6015625 833.9296875 C823.25742299 836.67734045 821.00116684 839.48800228 818.75 842.3125 C813.13286937 849.21584301 806.95814038 855.5943512 800.83837891 862.04833984 C798.64643638 864.37535028 796.48721169 866.73057065 794.33227539 869.09179688 C786.07592196 878.13242781 777.62552717 887.07870212 768.27734375 895.00390625 C765.67893515 897.28141362 763.17192547 899.64342955 760.65917969 902.01464844 C754.84112319 907.50419654 748.97369103 912.81383937 742.71875 917.80859375 C740.263882 919.78730201 737.8637926 921.8183026 735.47460938 923.87548828 C727.25194312 930.94105773 718.67028274 937.49635405 710 944 C709.24944336 944.5662207 708.49888672 945.13244141 707.72558594 945.71582031 C695.45851584 954.95656091 682.87962529 963.63609699 670 972 C669.195625 972.52335938 668.39125 973.04671875 667.5625 973.5859375 C655.30492061 981.52917151 642.7607349 988.89717794 630 996 C629.07622559 996.51675293 628.15245117 997.03350586 627.20068359 997.56591797 C585.16976099 1021.00138519 541.07549884 1039.08229069 495 1053 C494.05141113 1053.29277832 493.10282227 1053.58555664 492.12548828 1053.88720703 C481.54812643 1056.99840974 474.38567998 1055.89975467 464 1052.6875 C462.82937012 1052.33139648 461.65874023 1051.97529297 460.45263672 1051.60839844 C400.07126948 1032.99895482 343.04663013 1006.38574878 290 972 C288.44732422 970.99453125 288.44732422 970.99453125 286.86328125 969.96875 C265.98006621 956.22136158 246.07379218 941.31006576 226.76464844 925.44433594 C225.17593778 924.1440022 223.57686975 922.85634753 221.9765625 921.5703125 C216.11089386 916.84752486 210.52710707 911.90357106 205.01953125 906.7734375 C202.76839242 904.6848344 200.47088646 902.65800255 198.15234375 900.64453125 C193.92696059 896.96201851 189.82584775 893.15924042 185.75 889.3125 C185.01346191 888.61769531 184.27692383 887.92289063 183.51806641 887.20703125 C167.25363236 871.80942042 167.25363236 871.80942042 160.03125 863.3125 C157.73944977 860.70337358 155.36630732 858.18250983 152.9831543 855.65698242 C147.49580029 849.84086302 142.18714498 843.97626188 137.1953125 837.72265625 C135.1999108 835.24793208 133.14952377 832.83074099 131.07348633 830.42358398 C124.88891205 823.23457471 119.15844506 815.75703595 113.55029297 808.11230469 C112.51878994 806.70686151 111.48396644 805.30384917 110.44580078 803.90332031 C91.02257696 777.69498153 74.23001095 749.82434053 59 721 C58.31623291 719.71053467 58.31623291 719.71053467 57.61865234 718.39501953 C44.92972587 694.28194982 34.651801 668.82052853 26 643 C25.6292334 641.89575684 25.2584668 640.79151367 24.87646484 639.65380859 C8.85748176 591.36479909 -0.19869351 540.82883529 -0.12025452 489.91690063 C-0.12069262 487.80213915 -0.12157079 485.68737772 -0.12284851 483.57261658 C-0.12508172 477.780442 -0.12109138 471.98828606 -0.11607273 466.19611385 C-0.111694 459.84689549 -0.11316814 453.49767794 -0.11389065 447.14845848 C-0.11436126 436.23083595 -0.11129991 425.31322023 -0.10557556 414.39559937 C-0.0973859 398.74835094 -0.09547149 383.10110907 -0.09460449 367.45385742 C-0.08935734 329.84423712 -0.07539619 292.23461845 -0.0625 254.625 C-0.041875 170.59875 -0.02125 86.5725 0 0 Z " fill="#000000" transform="translate(0,0)"/>
<path d="M0 0 C0.99 0.33 1.98 0.66 3 1 C3.60908203 2.36125 3.60908203 2.36125 4.23046875 3.75 C6.52903446 7.97164828 9.27588528 9.56783175 13.3125 12 C18.53540055 15.20296572 22.95864188 18.34405747 27 23 C27.375 26.875 27.375 26.875 27 30 C26.01 30.33 25.02 30.66 24 31 C23.34 30.67 22.68 30.34 22 30 C16.28973732 29.48555205 16.28973732 29.48555205 11.1875 31.6875 C6.77684414 36.35019333 5.61218075 39.8993319 5.3125 46.3125 C5.21388672 48.19388672 5.21388672 48.19388672 5.11328125 50.11328125 C5.07589844 51.06589844 5.03851563 52.01851562 5 53 C8.91645169 51.51174836 12.07306784 50.12887335 15.25 47.375 C21.14248943 42.28603186 29.61481665 43.49067701 37 44 C42.52617794 45.36713195 46.46035984 48.69886274 49.9296875 53.14453125 C51.74631091 56.29378715 51.62969646 58.47369982 51 62 C49.09393457 66.79037608 46.42897098 70.25825606 42 73 C38.6875 73.75 38.6875 73.75 36 74 C33.1091679 69.66375185 33.15299045 65.26114057 32.5625 60.15234375 C32.2945666 56.91330112 32.2945666 56.91330112 30 55 C23.9830237 55 20.14288921 56.71015488 15.078125 59.84375 C9.41856128 65.71607927 8.29934692 72.94159095 8.4375 80.8125 C8.45067261 82.11864258 8.45067261 82.11864258 8.46411133 83.45117188 C8.68791383 90.56531873 9.90820957 97.01891374 14 103 C17.94864958 106.69828157 17.94864958 106.69828157 22.953125 108.01953125 C28.42739533 107.52610212 31.56603572 106.43858454 36 103 C45.55135288 95.6211117 56.15412978 90.85090856 67.23046875 86.21875 C80.82792025 80.51659292 93.79505487 74.051885 100.23828125 60.05078125 C101.5441308 56.53503246 102 53.78290179 102 50 C99.33990453 45.72071598 94.7405332 44.15474527 90 43 C86.0055466 42.490903 82.02125485 42.19436065 78 42 C79.20842856 46.43090471 80.51668565 48.98112756 84 52 C80.60686626 54.0880823 77.95400991 54.50476722 74 54 C71.29432869 51.17946528 70.56866619 49.12237041 70.5625 45.25 C70.72972369 40.09646996 71.98962708 36.19129092 75 32 C78.38091532 28.86057863 80.62626605 27.10567184 85.25 26.75 C89.37282531 27.02485502 91.33892765 28.16946382 95 30 C96.82714156 30.32822902 98.66167706 30.6166411 100.5 30.875 C105.65446092 31.75622398 108.50212892 32.90493142 112 37 C115.65624918 44.04728686 116.80523064 51.05610058 117.5625 58.875 C118.7591756 73.69460841 118.7591756 73.69460841 124.6875 87 C128.10965314 91.94656682 127.84666686 97.21444311 127 103 C125.6875 106.25 125.6875 106.25 123 108 C116.20050553 109.32618239 110.48759123 108.03413975 104.50390625 104.7109375 C99.93647395 101.58997752 95.95023722 97.85778486 92 94 C92.66 93.67 93.32 93.34 94 93 C94.66 93.33 95.32 93.66 96 94 C98.45104466 94.12472772 100.86131348 94.18516331 103.3125 94.1875 C104.62863281 94.20167969 105.94476562 94.21585937 107.30078125 94.23046875 C110.72125367 94.01736646 112.95266341 93.49124982 116 92 C116 91.34 116 90.68 116 90 C106.53987514 85.36268389 97.57983547 86.99150625 87.75 90 C72.47341321 95.28209426 58.62833597 104.01718472 46.234375 114.29296875 C44 116 44 116 42 116 C41.9071875 117.299375 41.9071875 117.299375 41.8125 118.625 C40.02470613 126.05122067 33.66911379 129.98769714 27.75 134.1875 C26.30242466 135.21583917 24.859465 136.250716 23.421875 137.29296875 C22.78862305 137.7418042 22.15537109 138.19063965 21.50292969 138.65307617 C19.7138754 140.03264997 19.7138754 140.03264997 19 143 C19.90363281 142.96519531 20.80726563 142.93039062 21.73828125 142.89453125 C22.91777344 142.86746094 24.09726562 142.84039062 25.3125 142.8125 C26.48425781 142.77769531 27.65601563 142.74289062 28.86328125 142.70703125 C32 143 32 143 33.98046875 144.07421875 C35.69467348 147.31216101 34.94100884 149.54963425 34 153 C31.78515625 155.87109375 31.78515625 155.87109375 29.0625 158.4375 C28.16660156 159.30246094 27.27070313 160.16742188 26.34765625 161.05859375 C24 163 24 163 22 163 C21.731875 163.556875 21.46375 164.11375 21.1875 164.6875 C20 167 20 167 18.3125 169.0625 C16.509171 173.09852204 17.17880318 176.2660348 17.7734375 180.57421875 C18 183 18 183 17 185 C16.49761365 191.45373238 16.05558315 197.55942504 20 203 C22.22025068 205.54675813 23.72914833 206.81912093 27.11328125 207.30078125 C30.60354079 207.22452348 33.04432242 206.76165232 35.80859375 204.55859375 C39.08670072 200.64285001 40.38726357 196.96189545 41.4375 192 C43.28282061 183.57939907 47.81112078 179.20949986 54.875 174.5625 C59.36811313 172.0449847 63.79307867 170.48889116 69 171 C69.99 171.66 70.98 172.32 72 173 C71.125 179.75 71.125 179.75 70 182 C67.46402099 183.3736553 64.86395116 184.56338639 62.25 185.78125 C59.86303466 186.79604539 59.86303466 186.79604539 59 189 C71.58967101 187.83332233 85.99073915 185.82828456 95 176 C101.21042828 166.62988014 102.75989361 159.16772221 102 148 C101.34936778 145.09607532 100.62727206 143.55714181 99 141 C97.09061231 139.68740419 97.09061231 139.68740419 95 140 C91.8330365 142.15353518 90.58006693 145.6141423 89 149 C85.03869135 145.30277859 83.25233942 142.9826669 82.5625 137.5625 C83 134 83 134 84.875 131.0625 C89.29018202 128.14847987 92.85468826 128.26258817 98 129 C104.13983021 131.00725218 107.66076243 135.49910023 111.1484375 140.71875 C114.15435594 148.77130216 112.79030134 160.78619797 109.44921875 168.51171875 C102.34651885 180.70692047 90.48923287 187.4146704 78.3125 193.6875 C69.24343738 198.49517749 61.45757419 203.91264225 53.68945312 210.58154297 C50.93761433 212.8919741 48.05848264 215.02857164 45.1875 217.1875 C30.22982617 227.91471262 30.22982617 227.91471262 22.4375 243.75 C23.35903462 249.07442224 24.83071288 251.16800724 29.25 254.3125 C33.0783391 256.24656736 35.67110737 256.70965453 40 256 C53.38798872 251.19355637 64.86570193 240.8537138 71 228 C71.97686642 224.95447527 72.53108292 222.17821578 73 219 C69.7 219 66.4 219 63 219 C63 215 63 215 64.40625 213.54296875 C71.54495737 208.92145484 82.30247193 202 91 202 C90.58403722 205.9516464 89.55552443 209.10268969 87.9375 212.6875 C85.65779763 218.1307024 85.38156427 223.1603446 86 229 C86.33 229.66 86.66 230.32 87 231 C85.906875 231.268125 84.81375 231.53625 83.6875 231.8125 C79.64928454 233.07229639 79.64928454 233.07229639 77 236 C76.52878659 238.37929756 76.52878659 238.37929756 76.55859375 241.03515625 C76.53216797 242.00904297 76.50574219 242.98292969 76.47851562 243.98632812 C76.46498047 245.00146484 76.45144531 246.01660156 76.4375 247.0625 C76.40314145 249.07438422 76.36058098 251.08615035 76.30859375 253.09765625 C76.29626709 253.98976807 76.28394043 254.88187988 76.27124023 255.80102539 C76 258 76 258 74 260 C68.00854214 260.33285877 68.00854214 260.33285877 65.0234375 259.34765625 C62.23614402 258.86875834 61.30592435 259.66030973 59 261.25 C46.03021275 270.49283689 35.64569797 282.30740141 26.75 295.4375 C26.34241455 296.01669189 25.9348291 296.59588379 25.51489258 297.19262695 C24.24740978 299.04717373 24.24740978 299.04717373 23 302 C23.96460453 305.9938012 25.60847453 308.65202083 29 311 C35.08585951 312.34411621 40.11322472 310.60661312 45.4453125 307.69140625 C50.0805002 304.62254345 54.03627755 300.87817448 58 297 C58.845625 296.175 59.69125 295.35 60.5625 294.5 C61.7690625 293.2625 61.7690625 293.2625 63 292 C63.98033203 291.05253906 63.98033203 291.05253906 64.98046875 290.0859375 C74.67342852 280.64322626 82.14155517 270.75276556 88.5 258.8125 C89.18171735 257.55346744 89.86435861 256.29493476 90.54785156 255.03686523 C92.71649744 251.03408664 94.86001493 247.01815582 97 243 C97.7310946 241.62954386 98.46221445 240.25910118 99.19335938 238.88867188 C102.10723715 233.42291586 105.0151368 227.95402761 107.91064453 222.47851562 C112.01085585 214.72586792 116.15645687 207.00166199 120.375 199.3125 C122.2527221 195.87648004 124.12691889 192.43855162 126 189 C126.45004395 188.17661133 126.90008789 187.35322266 127.36376953 186.50488281 C131.97359635 178.03393263 136.38307436 169.52552688 140.26171875 160.69140625 C140.54137985 160.05621567 140.82104095 159.42102509 141.10917664 158.7665863 C142.47760838 155.64867142 143.8250193 152.52487793 145.14624023 149.38647461 C152.97157428 131.28260143 165.57771501 113.80832683 184.3125 105.9375 C192.62183865 103.82495627 198.48193969 105.09267192 206 109 C209.13815554 111.13394577 210.68737197 112.41996104 211.43359375 116.19140625 C211.81706652 123.61683359 209.9029239 130.33694253 205.26953125 136.18359375 C201.6963541 139.72824253 199.10982047 141.41335912 194 141.4375 C192.66328616 141.32685983 191.32724563 141.19355665 190 141 C190 140.34 190 139.68 190 139 C191.72461735 137.64724412 193.50624651 136.36665285 195.3125 135.125 C201.33729836 131.19297513 201.33729836 131.19297513 204.43359375 125 C204.44071068 121.35613073 204.42231027 119.5679345 202.1875 116.5625 C198.19358386 113.70970276 194.79744174 113.46695092 190 114 C177.45633756 119.53637219 165.04918462 133.14504889 160 146 C159.70111003 148.73053719 159.86414099 151.2375334 160 154 C162.02436325 156.02436325 166.20244813 155.27473859 169 155.375 C185.41006679 156.16504193 200.41531466 159.95065573 216 165 C216.8878418 165.2789209 217.77568359 165.5578418 218.69042969 165.84521484 C233.33027126 170.46207076 244.22168174 174.95469476 252 189 C257.04003944 199.75109004 257.8561884 210.70256057 253.875 221.9375 C250.00960818 230.76044421 245.52365883 235.78131266 236.6796875 239.89453125 C224.25631214 243.62681918 211.63798965 241.55573972 200.36328125 235.609375 C189.50323502 229.44073888 181.07573041 221.64416225 177.46875 209.3203125 C176.06111371 202.35251288 176.27076455 195.21539241 180 189 C183.23177987 185.45034014 186.53685823 183.20691983 191.41796875 182.796875 C197.68238736 182.69084817 202.37688037 183.13732092 208 186 C209.5 188.1875 209.5 188.1875 210 190 C205.73697313 191.42100896 201.50362476 191.27972397 197.03125 191.42578125 C193.94748701 191.72130095 193.94748701 191.72130095 192.15625 193.79296875 C189.33861876 199.17121758 189.29212592 205.0538577 190 211 C193.44758844 220.76357047 199.15707047 226.87388849 208 232 C213.43943689 234.44219616 218.79054082 235.20808399 224.41796875 233.08984375 C233.6064432 228.65943204 242.74422902 223.69669338 247 214 C248.47530968 205.18245144 244.93808223 197.39265128 239.9375 190.3125 C231.52459034 180.27014258 220.22981487 177.01531857 208 174 C207.31784424 173.81236084 206.63568848 173.62472168 205.93286133 173.43139648 C199.28582829 171.72735961 192.77165857 171.66798498 185.9375 171.6875 C184.23883789 171.66333008 184.23883789 171.66333008 182.50585938 171.63867188 C173.56236614 171.63346308 166.92270109 172.63571661 160.125 178.9375 C159.38507813 179.60652344 158.64515625 180.27554688 157.8828125 180.96484375 C154.58409338 184.53047168 153.67652228 187.92866107 152.6875 192.625 C150.93640409 200.5363615 148.74274906 208.3084364 146.52490234 216.09985352 C145.59743239 219.45729473 144.84665197 222.50283827 144.8125 226 C144.79832031 226.66 144.78414062 227.32 144.76953125 228 C145.03976167 230.34505044 145.90906172 231.92459599 147 234 C147.92727905 233.97643433 147.92727905 233.97643433 148.87329102 233.95239258 C161.3373454 233.67824122 172.88775592 233.75850737 185 237 C185.81138428 237.20786133 186.62276855 237.41572266 187.45874023 237.62988281 C194.31086742 239.42456022 200.93327252 241.63577514 207.5625 244.125 C209.11807617 244.70399048 209.11807617 244.70399048 210.70507812 245.29467773 C218.12062863 248.12000248 225.20244563 251.35505155 232.11547852 255.25634766 C237.01239839 257.91571248 240.41313773 258.60524341 246 258 C248.28131987 257.03891307 248.28131987 257.03891307 250 255.4375 C250.65613281 254.89867187 251.31226563 254.35984375 251.98828125 253.8046875 C253.37794019 252.558042 254.74940212 251.29091821 256.10546875 250.0078125 C256.79253906 249.36585938 257.47960937 248.72390625 258.1875 248.0625 C258.79980469 247.45535156 259.41210938 246.84820312 260.04296875 246.22265625 C262 245 262 245 264.62109375 245.171875 C267 246 267 246 268.875 248.1875 C270.3302305 251.82557625 270.24303022 253.27090934 269 257 C265.41760186 263.05301754 259.71321343 270.64877158 252.7109375 272.65625 C250.5 272.9375 250.5 272.9375 247 273 C246.67 271.68 246.34 270.36 246 269 C243.03 269.66 240.06 270.32 237 271 C236.67 272.32 236.34 273.64 236 275 C244.43552333 283.20753622 255.45854379 285.28553965 266.85546875 285.234375 C270.49387133 284.96318971 272.94713008 283.98023994 276 282 C276.66 282 277.32 282 278 282 C278.268125 281.29875 278.53625 280.5975 278.8125 279.875 C280.0681449 276.8350176 281.50235123 273.9272226 283 271 C283.66 271.33 284.32 271.66 285 272 C285.54150283 281.32588212 285.45069152 291.04907538 279.609375 298.859375 C277.06488518 301.2431602 275.13358417 301.98487726 271.6875 302.375 C269 302 269 302 268 301 C266.44355647 300.6775729 264.87940255 300.39200582 263.3125 300.125 C259.09822569 299.33030827 255.79398403 298.03579631 252 296 C251.01 296 250.02 296 249 296 C248.65300411 300.85794252 249.37596666 303.87651904 252 308 C255.04777742 309.92566411 257.87321915 310.4178379 261.421875 310.8515625 C262.44667969 310.98046875 263.47148438 311.109375 264.52734375 311.2421875 C265.59082031 311.36851562 266.65429688 311.49484375 267.75 311.625 C268.82894531 311.7590625 269.90789063 311.893125 271.01953125 312.03125 C273.67895206 312.36073576 276.33901982 312.68339792 279 313 C279.33 313.99 279.66 314.98 280 316 C279.278125 316.61875 278.55625 317.2375 277.8125 317.875 C274.62102924 321.02113737 272.96888191 324.76141942 271.11328125 328.79296875 C270 331 270 331 268 333 C264.6771238 333.50556644 262.17807486 333.70484763 259.21435547 331.93164062 C257.37448889 330.4424938 255.65146315 328.88234586 253.9375 327.25 C247.04557721 320.22508933 247.04557721 320.22508933 238.3125 316.8125 C235.46974559 318.27229281 234.76190522 319.83398982 233.66796875 322.77734375 C232.90670944 325.31042297 232.30622552 327.86603384 231.6875 330.4375 C229.56550309 338.34085585 225.93618294 343.04640463 219 347.375 C209.85484343 352.62174047 200.16701061 353.56889785 189.859375 351.3125 C179.59818994 347.87299663 171.121563 341.24312599 166.25 331.5 C165.01131795 328.03169025 164.00258253 324.54245826 163 321 C162.6596875 320.43410156 162.319375 319.86820312 161.96875 319.28515625 C158.06146171 310.06836734 160.99705385 297.80730646 164.5546875 288.984375 C166.3628496 285.25076462 168.34730786 282.18323057 171 279 C172.9375 279.375 172.9375 279.375 175 280 C177.32232437 284.64464873 176.43068846 290.94919896 176 296 C175.10546875 298.24609375 175.10546875 298.24609375 174 300.0625 C170.84557026 305.34249531 171.16611124 311.0558699 172 317 C174.72404271 324.94602181 179.22025804 331.22831208 186.375 335.6875 C187.29023437 336.26886719 188.20546875 336.85023438 189.1484375 337.44921875 C195.92298205 341.13345736 202.06651591 342.12398949 209.5546875 340.41796875 C216.53481974 338.09479404 220.39875881 334.35028026 224 328 C230.29124759 314.19193711 233.4303156 296.55775226 228.4375 281.75 C227.35591734 279.30028577 227.35591734 279.30028577 226 277 C225.50242187 276.12214844 225.00484375 275.24429687 224.4921875 274.33984375 C219.18979152 265.96699057 212.35641774 261.7834063 203.3671875 258.06640625 C200.7038987 256.86660783 198.26544216 255.42124632 195.75 253.9375 C180.87393573 245.78764509 164.52834681 246.48974922 148.67016602 250.86474609 C143.51174522 252.39234026 138.74988269 254.25502284 134.046875 256.8984375 C132.06116123 257.96708499 130.21546087 258.60411174 128.0625 259.25 C117.33670973 263.1483294 109.32633762 273.62501831 102 282 C102.81726563 281.67257812 103.63453125 281.34515625 104.4765625 281.0078125 C108.59263124 279.83048907 112.13044334 279.77521838 116.375 279.875 C117.11105469 279.88402344 117.84710937 279.89304687 118.60546875 279.90234375 C120.4037888 279.92569856 122.20193911 279.96156164 124 280 C123.36796266 284.1464428 122.48106616 286.29823892 119.05859375 288.94921875 C115.59897915 290.71513209 111.89851798 290.91112902 108.0859375 291.43359375 C91.76355355 294.42947435 82.01320066 309.39238056 72.71606445 321.72680664 C70.91313763 324.11506267 69.10365909 326.49766232 67.28125 328.87109375 C66.73146484 329.58966553 66.18167969 330.3082373 65.61523438 331.04858398 C63.31872261 333.82307288 60.92064455 335.89441905 58 338 C57.34 338 56.68 338 56 338 C54.57741188 341.82320557 53.75957724 344.91281305 54 349 C63.93278027 350.39058924 73.19944601 344.26093325 81 338.625 C85.98695613 334.50170667 89.78141649 329.39637332 91.97265625 323.2890625 C92.31167969 322.53367187 92.65070313 321.77828125 93 321 C98.35872991 319.2137567 104.00330642 319.04158708 109.125 321.5 C109.74375 321.995 110.3625 322.49 111 323 C110.86528625 328.38854982 108.70142446 331.29096547 105.1796875 335.09765625 C101.45376087 338.34949544 96.10943279 342 91 342 C91 342.66 91 343.32 91 344 C91.804375 344.309375 92.60875 344.61875 93.4375 344.9375 C96 346 96 346 97 347 C101.59700645 347.38957682 104.04776966 347.48545076 108.1875 345.375 C116.60211811 338.26932248 120.37637924 328.95792597 121.34765625 318.12109375 C121.38146285 313.56686146 121.30359776 309.31069354 120.2734375 304.86328125 C120 302 120 302 121.328125 299.734375 C122.27945313 298.75210938 122.27945313 298.75210938 123.25 297.75 C124.18585938 296.75226563 124.18585938 296.75226563 125.140625 295.734375 C129.05593089 292.08228295 131.57827899 291.54523342 136.72265625 291.6953125 C141.11983495 292.28361428 143.6603016 294.42993018 146.4765625 297.73046875 C150.04999911 302.73128368 150.9396002 306.94852728 150 313 C149.25 316.4375 149.25 316.4375 147 319 C143.99505869 319.71483185 141.01782528 320.08340196 137.953125 320.4609375 C133.51532253 321.27101255 131.94590184 322.60088249 129 326 C124.42956536 333.61739107 125.31698109 341.77568145 127.25 350.1875 C129.0660628 356.7921435 131.58612216 362.70334659 136 368 C129.64527975 373.6071061 124.12766682 374.38265465 115.859375 374.26953125 C112.19243107 373.9238767 110.03727168 373.02484779 107 371 C107.33 370.01 107.66 369.02 108 368 C110.52475462 366.73762269 112.31200466 366.90143596 115.125 366.9375 C116.03507812 366.94652344 116.94515625 366.95554687 117.8828125 366.96484375 C118.93082031 366.98224609 118.93082031 366.98224609 120 367 C120.26849027 362.97969702 120.26849027 362.97969702 120 359 C116.9843295 355.77635222 113.84393094 355.05726339 109.48828125 354.76171875 C98.58033752 354.36559522 98.58033752 354.36559522 89 359 C87.45316234 362.74497538 87.72620746 364.32920827 89.25 368.0625 C90.36911676 369.94101742 91.49360727 371.81635049 92.625 373.6875 C95.37379766 378.31047788 95.64697775 382.75229162 95 388 C92.31443995 393.27165492 88.8154035 396.8648879 83.296875 399.08984375 C74.83663239 401.42543205 64.7510368 401.30613156 57 397 C53.92105223 394.42915445 52.19253041 392.02682883 51.4375 388 C52.14435704 384.23009581 53.635559 381.99032245 56 379 C56.66 378.67 57.32 378.34 58 378 C58.4125 379.2375 58.825 380.475 59.25 381.75 C61.12361781 386.63105018 61.12361781 386.63105018 65 390 C70.92234296 390.88682244 75.96199762 390.44058699 81 387 C83.86548713 384.42106159 83.99626337 383.03309583 84.4375 379.125 C84.24362179 374.78697495 82.95314534 372.25603204 80 369 C72.53032745 365.13177671 65.34805901 363.97254658 57 365 C42.90987721 369.80540119 36.4860878 379.33870443 30 392 C24.93090811 402.76621286 23.6566742 413.00960665 23.38671875 424.8046875 C23.36840185 425.51055874 23.35008495 426.21642998 23.331213 426.94369125 C22.71340093 450.98086209 22.81261234 475.03535238 22.81488788 499.07847762 C22.81458626 503.77011667 22.80640004 508.46169821 22.79418945 513.15332031 C22.68254419 551.27247525 22.68254419 551.27247525 23.88671875 589.3671875 C23.94513915 590.60376791 23.94513915 590.60376791 24.00473976 591.86532974 C24.11659437 594.14651465 24.24174206 596.42644613 24.3737793 598.70654297 C24.48196236 600.58404739 24.48196236 600.58404739 24.59233093 602.4994812 C25.46983289 610.03429887 27.34617067 615.03868725 33 620 C38.75069349 624.10010126 44.7809043 627.72794813 50.89453125 631.2578125 C61.83007248 637.59080214 73.08518373 644.18125277 77 657 C77.13572123 658.42826333 77.25382852 659.85825282 77.359375 661.2890625 C77.84511035 666.34405639 79.68410208 670.01727084 82.1875 674.375 C82.59460205 675.1074292 83.0017041 675.8398584 83.42114258 676.59448242 C84.23403816 678.05685892 85.05186842 679.51650503 85.875 680.97314453 C87.39493575 683.71153573 88.77650726 686.51678301 90.1875 689.3125 C92.49860426 693.4902654 94.47747434 696.06177472 99 698 C104.2582423 698.65728029 107.46139393 697.65674502 112 695 C106.81117468 691.63278357 101.57264628 688.6868116 96 686 C96 685.67 96 685.34 96 685 C102.0096832 684.40345056 106.6331209 684.13562875 111.625 687.875 C114.68881395 690.46361016 115.90095781 691.8362543 116.25 695.9375 C116 699 116 699 114.73046875 700.5859375 C109.23043185 705.08032432 101.83273805 705.54796557 94.99609375 705.34765625 C87.94755219 704.52976812 81.85224676 701.92106534 77.11328125 696.5546875 C74.30128646 692.62776144 73.98555327 688.79323759 73.75 684.125 C73.0855853 676.61373552 68.54059315 672.29188179 63.25 667.3125 C55.97295605 661.26908826 49.50309682 658.23362122 40 659 C40 660.32 40 661.64 40 663 C41.41393217 663.94262145 42.83404849 664.87739661 44.28515625 665.76171875 C52.41688728 671.63360653 55.75065408 682.73085928 59.1796875 691.66699219 C63.36208621 703.58650223 63.36208621 703.58650223 72.375 711.5625 C73.24125 711.706875 74.1075 711.85125 75 712 C74.47731534 709.23723823 73.89130413 706.6739124 73 704 C76.55839258 704.88959814 78.68878692 705.70516655 81.375 708.25 C83.33503394 711.56698051 83.72490296 713.21439567 83 717 C77.71203177 722.14881117 73.63680673 722.40721977 66.47265625 722.34375 C59.94845146 721.69793445 54.98893012 719.35212605 50.75390625 714.34375 C48.58811985 710.21476747 48.49494464 707.19757313 48.5 702.625 C48.26635321 695.17611776 47.66212897 689.77057471 42.28515625 684.234375 C36.75250899 679.22808953 32.3378026 678.64740046 24.953125 678.71875 C20.98009723 679.0971336 18.8820468 680.26575047 16 683 C12.10873527 688.51340642 12.13413966 693.44754341 13 700 C14.35819748 704.16708617 16.11456742 708.0498642 18 712 C18.33 712.99 18.66 713.98 19 715 C21.33294775 715.04241723 23.66702567 715.04092937 26 715 C27.38528649 713.83697846 27.38528649 713.83697846 27.1875 710.625 C27.30453853 706.90324609 27.30453853 706.90324609 25 704 C31.30162703 704.59449312 31.30162703 704.59449312 33.9375 706.125 C35.73354094 709.29448402 35.45821747 711.39153746 35 715 C31.76260788 724.46194314 24.894976 732.39367314 16 737 C15.01 737 14.02 737 13 737 C12.97306425 739.12493141 12.95363372 741.24995912 12.9375 743.375 C12.92009766 745.15003906 12.92009766 745.15003906 12.90234375 746.9609375 C12.78533407 749.91921521 12.78533407 749.91921521 14 752 C14.62463909 758.24639089 12.91705592 761.73804383 10 767 C9.119873 768.78915369 8.24495534 770.58087845 7.375 772.375 C6.06235657 775.07553393 5.13226395 776.86773605 3 779 C0.5625 778.9375 0.5625 778.9375 -2 778 C-4.75776402 774.39369321 -6.22002081 770.15328478 -8 766 C-8.51989502 765.22116455 -9.03979004 764.4423291 -9.57543945 763.63989258 C-11.23027284 760.57327503 -11.34848813 758.72242702 -11.29296875 755.26171875 C-11.28330078 754.19501953 -11.27363281 753.12832031 -11.26367188 752.02929688 C-11.23853516 750.92650391 -11.21339844 749.82371094 -11.1875 748.6875 C-11.17396484 747.56537109 -11.16042969 746.44324219 -11.14648438 745.28710938 C-11.1112138 742.52424771 -11.06192235 739.76237171 -11 737 C-12.1612439 736.80664062 -12.1612439 736.80664062 -13.34594727 736.609375 C-21.02348711 734.84659886 -26.92747315 726.29028324 -30.94140625 719.9453125 C-33.13441646 715.91535277 -33.47687939 712.5303542 -33 708 C-30.449054 705.15751732 -29.0103853 704.08981203 -25.1875 703.75 C-24.465625 703.8325 -23.74375 703.915 -23 704 C-23.66 704.99 -24.32 705.98 -25 707 C-25.28662433 711.14776273 -25.28662433 711.14776273 -24 715 C-22.02 715 -20.04 715 -18 715 C-16.62837663 712.68242947 -15.30183341 710.35636513 -14 708 C-13.4225 706.96875 -12.845 705.9375 -12.25 704.875 C-10.06341346 699.54746043 -10.34839943 693.62548489 -11 688 C-13.1618068 683.35611873 -15.47576505 681.26211747 -20 679 C-25.70270582 678.20775927 -31.12978772 678.18390737 -36.4375 680.5 C-44.17994015 688.05360015 -46.2035044 693.89077337 -46.34179688 704.57617188 C-46.53854198 709.78762944 -47.51162757 712.89530735 -51 717 C-53.03515625 718.42578125 -53.03515625 718.42578125 -55.0625 719.3125 C-55.73410156 719.61800781 -56.40570313 719.92351563 -57.09765625 720.23828125 C-62.87067476 722.5498595 -70.1787935 723.57427983 -76.0859375 721.140625 C-77.89111197 719.92543438 -79.46124289 718.53875711 -81 717 C-81.56952369 712.91841355 -81.17381114 711.27388422 -78.9375 707.75 C-76.01390737 704.54076901 -73.19154207 703.821871 -69 703 C-69.66 703.7425 -70.32 704.485 -71 705.25 C-73.39211447 707.97242945 -73.39211447 707.97242945 -73 712 C-69.02717676 711.41143359 -66.82395064 709.82395064 -64 707 C-60.70344017 701.83212568 -58.62050154 696.0794507 -56.4609375 690.37280273 C-51.92342739 678.38909057 -47.97136963 669.36300806 -37 662 C-37.33 661.01 -37.66 660.02 -38 659 C-46.9536461 657.96688699 -53.89707549 661.83536269 -60.88671875 667.2265625 C-67.25710183 672.78786043 -71.03431764 676.88933229 -72 685.5 C-72.69398932 691.6880714 -74.20734278 695.20734278 -78.625 699.625 C-85.69498096 705.11809796 -94.29979315 706.07310244 -103 705 C-107.25190693 703.68745482 -110.83685693 702.16314307 -114 699 C-114.49590079 695.28074407 -114.32476717 693.51722179 -112.3125 690.3125 C-107.98180193 685.98180193 -105.31788304 684.82821893 -99.1875 684.8125 C-97.45786959 684.86048182 -95.72836466 684.91827348 -94 685 C-97.92255126 688.12127001 -102.20442089 690.29051313 -106.63671875 692.59765625 C-109.11567378 693.78052882 -109.11567378 693.78052882 -110 696 C-105.84709692 698.01352876 -102.5960387 698.47545228 -98 698 C-86.41778769 693.52967244 -82.12711386 678.47448559 -77 668 C-76.67 667.34 -76.34 666.68 -76 666 C-75.89666044 664.66806789 -75.81671341 663.33426817 -75.75 662 C-74.72416357 652.7228705 -70.15225582 646.22447952 -63.13671875 640.2890625 C-56.76777734 635.64124224 -49.85266016 631.87959276 -43 628 C-30.58794263 620.97841135 -30.58794263 620.97841135 -23.18774414 609.29467773 C-22.80040097 606.3469478 -22.63390147 603.47184481 -22.5625 600.5 C-22.48612305 599.05753906 -22.48612305 599.05753906 -22.40820312 597.5859375 C-22.3044364 595.57365106 -22.21834072 593.56038337 -22.14903259 591.5466156 C-22.05333691 589.26928952 -21.9266659 586.99293616 -21.76112366 584.71961975 C-20.73988166 570.62759372 -20.85280841 556.52334679 -20.8656745 542.40237498 C-20.86824671 538.68341552 -20.86584692 534.96445824 -20.86428833 531.24549866 C-20.86247901 524.99805248 -20.86483857 518.75061819 -20.86962891 512.50317383 C-20.87505235 505.34885795 -20.8733178 498.19457066 -20.8678025 491.04025549 C-20.86321565 484.83491557 -20.86264816 478.6295841 -20.86524117 472.42424303 C-20.86677587 468.74607507 -20.86707749 465.06792038 -20.86370468 461.38975334 C-20.85308934 447.77786476 -20.88755133 434.16965223 -21.37158203 420.56469727 C-21.4147395 419.14001208 -21.4147395 419.14001208 -21.45876884 417.68654537 C-21.81594486 409.20124013 -23.76479218 401.81548846 -27 394 C-27.433125 392.92621094 -27.86625 391.85242188 -28.3125 390.74609375 C-33.02158358 380.2710584 -40.09479183 371.5967389 -50.67578125 366.8046875 C-58.15535078 364.21512225 -66.50961795 363.66612467 -73.9375 366.625 C-77.96907156 368.69136105 -80.13018445 370.77259093 -82 375 C-82.62101925 378.03941152 -82.45765752 379.79639734 -82 383 C-79.25880405 386.40797334 -76.20054838 389.71280979 -71.6953125 390.30078125 C-67.91095361 390.31803517 -64.68545672 390.21876278 -61.0625 389.0625 C-57.9372278 385.9372278 -57.08566027 382.21024347 -56 378 C-50 384 -50 384 -49.5 387.6875 C-49.53344752 390.34896713 -49.72876628 391.63057484 -51.31640625 393.79296875 C-58.30853337 400.12811748 -66.29471985 400.46122018 -75.3984375 400.30859375 C-81.89135067 399.75225954 -85.86467214 397.3908404 -90.5 392.9375 C-93.58702611 389.03455691 -93.67952013 385.42956366 -93.39453125 380.578125 C-92.67038435 375.84607596 -90.54906805 372.76869527 -87.8125 368.9375 C-85.8989152 365.83617292 -85.52086222 364.5456196 -86 361 C-86.64554008 357.98149701 -86.64554008 357.98149701 -88.57421875 357.05078125 C-96.54686772 354.26551202 -106.337138 353.09935879 -114.3125 356.4375 C-116.8374016 357.75210408 -116.8374016 357.75210408 -118 359 C-118.07148199 360.35243917 -118.08399454 361.70834367 -118.0625 363.0625 C-118.0315625 365.0115625 -118.0315625 365.0115625 -118 367 C-117.31292969 366.97679687 -116.62585938 366.95359375 -115.91796875 366.9296875 C-115.01691406 366.91164063 -114.11585938 366.89359375 -113.1875 366.875 C-111.84751953 366.84019531 -111.84751953 366.84019531 -110.48046875 366.8046875 C-108 367 -108 367 -105 369 C-106 372 -106 372 -108.3125 373.1875 C-117.16078636 375.13712242 -124.24772643 374.77062989 -132 370 C-132 365.91375053 -131.57902063 364.80094002 -129.6875 361.375 C-124.80458812 351.8727425 -121.4062053 341.13739514 -124.796875 330.5 C-126.77237259 326.36665119 -128.99982286 323.05891731 -133.125 320.875 C-137.03771571 319.68417348 -140.93524861 319.33651537 -145 319 C-147.47397726 314.05204548 -149.13236611 309.60841708 -148 304 C-145.67153913 298.53707258 -142.44374908 294.56176427 -137 292 C-132.64289773 291.16175988 -129.77480599 291.60500087 -125.8125 293.625 C-122.54608809 296.38330339 -120.30406705 298.3693489 -118 302 C-118.1875 305.75 -118.1875 305.75 -118.59375 307.80078125 C-120.80839292 319.78966553 -117.27727362 330.82648758 -111 341 C-108.44369833 344.21483371 -106.04329952 346.50008594 -101.98828125 347.4921875 C-96.76604763 347.8303893 -93.88578733 346.10862987 -90 343 C-90.71285156 342.6596875 -91.42570313 342.319375 -92.16015625 341.96875 C-98.63402905 338.69260441 -104.13502269 335.30793466 -108 329 C-108.76171875 326.3984375 -108.76171875 326.3984375 -109 324 C-107.6875 321.6875 -107.6875 321.6875 -105 320 C-100.50881284 319.46373885 -95.22175789 319.20597603 -91 321 C-89.62109375 323.1796875 -89.62109375 323.1796875 -88.4375 325.875 C-86.94499738 329.23190754 -85.62601607 331.45771198 -83 334 C-83 334.66 -83 335.32 -83 336 C-82.43796875 336.26039063 -81.8759375 336.52078125 -81.296875 336.7890625 C-78.76517068 338.12380457 -76.56193349 339.68890838 -74.25 341.375 C-66.65897622 346.69871946 -61.45703136 349.78808595 -52 349 C-52.74111143 342.57703431 -53.54946221 338.90730639 -58.625 334.8125 C-65.13907278 329.27260387 -70.36786476 322.92763105 -75.4375 316.0625 C-85.49659969 302.51808618 -94.76611217 293.24284365 -111.6875 290.125 C-116.32217601 289.14927874 -118.77580955 287.4722051 -122 284 C-122 282.68 -122 281.36 -122 280 C-106.25512528 279.6309795 -106.25512528 279.6309795 -99 282 C-99.49628906 281.5875 -99.99257813 281.175 -100.50390625 280.75 C-104.10062031 277.69245181 -107.38202869 274.65728236 -110.375 271 C-122.62664907 256.87393012 -145.94101405 248.93959649 -164.3125 247.625 C-176.87863719 247.08991312 -187.35598548 250.08986034 -198.2421875 256.4375 C-201.15979157 258.09053347 -204.14315975 259.47109372 -207.1875 260.875 C-216.55195565 265.55722782 -222.32513229 272.20035278 -226 282 C-230.42064917 296.78738277 -229.28795256 313.29022266 -222.45703125 327.125 C-218.32033303 334.24352874 -213.8103896 338.3965368 -206 341 C-196.52495446 341.86136778 -187.11688467 338.820422 -179.75 332.7734375 C-173.62795921 326.56940509 -169.73003531 319.45794848 -169.625 310.6875 C-169.67144238 306.53555085 -169.82845474 303.62013798 -172 300.0625 C-175.27049546 294.65806424 -174.66600085 288.09468219 -174 282 C-173.34 281.01 -172.68 280.02 -172 279 C-169.63053645 279.37650374 -168.32658252 279.65348076 -166.65625 281.42578125 C-161.28690362 290.18724848 -158.65606026 298.67999379 -158.5625 308.9375 C-158.5524292 309.65929443 -158.5423584 310.38108887 -158.53198242 311.12475586 C-158.60661697 315.65629039 -159.49225313 318.28339054 -162 322 C-162.5531188 324.08777739 -162.5531188 324.08777739 -162.8125 326.1875 C-164.4989086 334.41388343 -168.90757809 341.05807005 -175.8515625 345.75390625 C-185.60572761 351.41132201 -194.72313465 353.05535333 -206 352 C-215.81684516 349.25856352 -222.76833189 344.82462305 -228 336 C-229.06147654 333.12956198 -229.85330599 330.20985268 -230.625 327.25 C-231.88122573 321.64688332 -231.88122573 321.64688332 -235 317 C-237.30639227 316.3922093 -237.30639227 316.3922093 -240 317 C-242.34420527 318.68272161 -244.38336661 320.31998394 -246.5 322.25 C-247.61413371 323.23488386 -248.72871056 324.21926667 -249.84375 325.203125 C-250.37613281 325.67814453 -250.90851563 326.15316406 -251.45703125 326.64257812 C-258.54245043 332.87595323 -258.54245043 332.87595323 -262.9375 333.25 C-266 333 -266 333 -267.6328125 331.76953125 C-269.70525901 329.08719334 -269.80746357 326.34775503 -270.27734375 323.05859375 C-270.81433998 320.82823365 -270.81433998 320.82823365 -272.95703125 319.82421875 C-273.63121094 319.55222656 -274.30539062 319.28023438 -275 319 C-276.75 317.375 -276.75 317.375 -278 316 C-277.67 315.01 -277.34 314.02 -277 313 C-274.33398541 312.11132847 -272.31044846 311.76750965 -269.54296875 311.53515625 C-268.67736328 311.45716797 -267.81175781 311.37917969 -266.91992188 311.29882812 C-265.1102721 311.14231088 -263.30037489 310.98862644 -261.49023438 310.83789062 C-256.71589729 310.40257301 -252.50236404 309.77861985 -248 308 C-247.505 302.06 -247.505 302.06 -247 296 C-251.80357882 296.77239287 -251.80357882 296.77239287 -255.25 298.4375 C-261.5722892 301.22755371 -268.22679144 303.08406417 -275 301 C-280.29686604 296.42543387 -281.89858824 290.79203917 -283 284 C-283.21359217 279.98353846 -283.18926532 276.01663061 -283 272 C-282.01 272 -281.02 272 -280 272 C-279.76925781 272.53109375 -279.53851563 273.0621875 -279.30078125 273.609375 C-277.19390541 278.17288472 -275.38671664 281.2583021 -271 284 C-261.29203709 287.08984626 -251.16452028 284.67581032 -242 281 C-238.89764456 279.3818859 -236.4824933 277.4824933 -234 275 C-234.33 273.68 -234.66 272.36 -235 271 C-237.97 270.34 -240.94 269.68 -244 269 C-244.33 270.32 -244.66 271.64 -245 273 C-249.22647368 273.63397105 -251.56489023 272.93248658 -254.9375 270.5 C-260.12564788 266.2976998 -265.43920319 261.28215178 -268 255 C-267.73357234 250.73715752 -266.82901615 248.19801825 -264 245 C-258.92520153 245.42350836 -256.83076823 246.62358718 -253.4375 250.375 C-249.62911929 254.54317425 -246.66588077 257.52652311 -240.96484375 258.5390625 C-235.08208612 258.26278724 -229.73982225 254.91278614 -224.5625 252.375 C-222.21791956 251.26317895 -219.87156871 250.15508342 -217.5234375 249.05078125 C-216.39518555 248.5192041 -215.26693359 247.98762695 -214.10449219 247.43994141 C-201.19235818 241.45096953 -187.89716998 237.92365288 -174 235 C-173.05125 234.79117188 -172.1025 234.58234375 -171.125 234.3671875 C-166.13230252 233.78054555 -161.14650967 233.89730319 -156.125 233.9375 C-155.05507813 233.94201172 -153.98515625 233.94652344 -152.8828125 233.95117188 C-150.25515014 233.96290251 -147.62760462 233.97931772 -145 234 C-141.1485192 226.60219197 -142.83541992 219.74355359 -145.1875 212 C-145.65044411 210.53195169 -146.11533262 209.06451531 -146.58203125 207.59765625 C-147.5711637 204.48024828 -148.43065156 201.36252121 -149.19921875 198.18359375 C-151.49816664 188.77461653 -153.41812598 181.08488314 -162.12109375 175.68359375 C-176.13876566 168.30181056 -195.17825295 170.92396504 -210 174.625 C-210.95865967 174.86033447 -211.91731934 175.09566895 -212.9050293 175.33813477 C-223.65308183 178.28708276 -233.8175469 183.91570126 -239.75 193.5625 C-240.34296875 194.51253906 -240.9359375 195.46257812 -241.546875 196.44140625 C-245.01289059 202.54420252 -244.56643904 209.16339545 -244 216 C-240.52212383 223.47099325 -232.87140025 227.81796801 -226 232 C-219.40188025 234.19937325 -211.48408995 234.02553971 -205.0625 231.3125 C-196.39104676 226.73941608 -192.32053447 220.64106894 -188 212 C-187.52368324 205.9093923 -187.38835741 200.07278878 -189.125 194.1875 C-193.40097888 190.93403781 -197.62140458 191.31718897 -202.8828125 191.30078125 C-203.91148437 191.20152344 -204.94015625 191.10226562 -206 191 C-206.66 190.01 -207.32 189.02 -208 188 C-201.14792233 183.06013005 -195.31537137 182.26589819 -187 183 C-182.25616083 184.6691286 -179.77777366 186.83333952 -177 191 C-173.71278824 198.09470164 -174.15955276 205.28208826 -176.5625 212.625 C-181.59152862 224.90071918 -191.16819086 232.68484378 -203.1875 237.875 C-205.11507815 238.60990464 -207.05191173 239.32132891 -209 240 C-210.04607422 240.36931641 -210.04607422 240.36931641 -211.11328125 240.74609375 C-219.32129378 243.21019689 -228.23768715 243.23101717 -235.90625 239.2578125 C-244.85111307 233.88421938 -250.47031576 227.76802549 -253.48828125 217.59765625 C-255.81804762 205.77097963 -253.60070876 194.62690312 -247.390625 184.33203125 C-236.87000775 169.92650717 -220.0588946 166.48228115 -203.75 161.75 C-202.57856445 161.40855957 -201.40712891 161.06711914 -200.20019531 160.71533203 C-189.4480857 157.67208207 -178.98011297 155.80586052 -167.8125 155.4375 C-162.48840927 155.72960398 -162.48840927 155.72960398 -158 154 C-156.88084262 145.2066206 -160.98957678 140.04208512 -166.0859375 133.19921875 C-175.93814317 120.43968751 -175.93814317 120.43968751 -189.96875 113.7265625 C-194.49407017 113.5070507 -197.44886633 114.2021371 -201 117 C-202.62075401 120.24150802 -202.55776218 123.49594113 -202 127 C-198.87706473 132.03699237 -194.81604466 134.6548636 -189.79296875 137.703125 C-189.20128906 138.13109375 -188.60960937 138.5590625 -188 139 C-188 139.66 -188 140.32 -188 141 C-192.0783085 141.59475332 -195.53544631 141.7897855 -199.23828125 139.79296875 C-205.36885353 134.86311119 -208.2333589 129.02332456 -209.41015625 121.3125 C-209.66078757 116.99392965 -209.50922329 114.73200849 -207 111.125 C-200.88377821 106.79267623 -195.74979528 103.86032422 -188 105 C-180.03724546 106.46682321 -174.29369315 110.03347773 -168 115 C-167.31035156 115.52464844 -166.62070312 116.04929687 -165.91015625 116.58984375 C-151.93922378 127.90491579 -144.72676497 144.95076599 -137.62792969 160.96948242 C-130.61512442 176.70398422 -122.73129767 191.93825666 -114.13769531 206.86254883 C-109.51080799 214.95413574 -105.23721556 223.20075222 -101 231.5 C-96.13247313 241.01229561 -91.21004414 250.48144707 -86 259.8125 C-85.50886719 260.70582031 -85.01773438 261.59914063 -84.51171875 262.51953125 C-78.246078 273.59840006 -69.69246122 282.79762081 -61 292 C-60.54189941 292.49209961 -60.08379883 292.98419922 -59.61181641 293.49121094 C-47.88302232 306.04555648 -47.88302232 306.04555648 -32.1875 311.375 C-28.23128257 311.34069754 -27.25397619 311.18659475 -23.9375 308.75 C-21.65026122 305.6221255 -21.65026122 305.6221255 -21 302 C-22.15161608 299.67555385 -23.3068479 297.69411483 -24.75 295.5625 C-25.15468506 294.95067871 -25.55937012 294.33885742 -25.97631836 293.70849609 C-34.66617217 280.8643475 -46.09643743 266.29469426 -60 259 C-62.60020219 259.18559071 -62.60020219 259.18559071 -65 260 C-68.6875 260.25 -68.6875 260.25 -72 260 C-74.13042091 256.80436864 -74.25491387 255.89845293 -74.30859375 252.21875 C-74.33373047 251.29449219 -74.35886719 250.37023437 -74.38476562 249.41796875 C-74.41992067 247.4727229 -74.45117105 245.52740257 -74.47851562 243.58203125 C-74.5181543 242.19564453 -74.5181543 242.19564453 -74.55859375 240.78125 C-74.57877563 239.5137793 -74.57877563 239.5137793 -74.59936523 238.22070312 C-75.09141954 235.49326501 -75.80035531 234.64744715 -78 233 C-80.30988315 232.25613932 -82.64315944 231.57809297 -85 231 C-84.67 230.34 -84.34 229.68 -84 229 C-82.75629095 220.49869765 -85.133547 214.38211017 -88.6875 206.87109375 C-90 204 -90 204 -90 202 C-84.50521287 202.5987909 -79.98681423 204.51169394 -75 206.75 C-74.21882812 207.08515625 -73.43765625 207.4203125 -72.6328125 207.765625 C-67.7266397 209.94614624 -63.95987147 212.37011782 -60 216 C-60.33 216.99 -60.66 217.98 -61 219 C-64.3 219 -67.6 219 -71 219 C-69.40641711 229.80095067 -63.57602787 239.2112704 -55 246 C-44.04365549 254.15306621 -44.04365549 254.15306621 -31 256 C-24.60761434 252.78051989 -24.60761434 252.78051989 -21 247 C-20.17902739 241.13590994 -21.79008939 238.0745585 -25.00390625 233.40625 C-30.03471658 227.34171151 -35.75502709 222.43494844 -42.0625 217.75 C-50.84860636 211.16871437 -50.84860636 211.16871437 -54.4453125 208.13671875 C-62.12897331 201.70289343 -70.2344052 196.96936062 -79.08520508 192.27587891 C-91.7156922 185.55615681 -104.83365183 177.65668544 -109.37109375 163.23046875 C-110.90076713 155.37307816 -112.06308549 145.39278658 -107.875 138.25 C-104.90413788 134.48352238 -101.31010739 131.1550537 -97 129 C-91.65693288 128.3977219 -87.41133502 128.08678322 -82.8125 131.0625 C-80.47420981 134.85214272 -80.25497159 136.60433239 -81 141 C-82.4443205 143.83883685 -84.12811628 146.42615988 -86 149 C-87.5949383 146.97007853 -88.91186271 145.22034323 -89.875 142.8125 C-90.89809093 140.71108297 -90.89809093 140.71108297 -93.625 140.25 C-94.40875 140.1675 -95.1925 140.085 -96 140 C-101.1865492 146.6757564 -100.73227842 152.70382127 -100 161 C-99.35690801 164.13136328 -98.48595037 166.07933893 -97 169 C-96.67128906 169.67417969 -96.34257812 170.34835937 -96.00390625 171.04296875 C-90.87282244 180.50617868 -81.68562407 184.04961184 -71.8203125 187.03125 C-66.5564096 188.36606382 -61.4191017 188.88899419 -56 189 C-56 188.34 -56 187.68 -56 187 C-56.680625 186.7525 -57.36125 186.505 -58.0625 186.25 C-67.35135135 182.2972973 -67.35135135 182.2972973 -69 179 C-69.1875 176 -69.1875 176 -69 173 C-68.34 172.34 -67.68 171.68 -67 171 C-58.44876878 171.15270056 -51.13064496 174.63578502 -45 180.5625 C-41.36911125 184.34176641 -39.91179661 187.72067936 -39.125 192.875 C-38.09603394 198.3333434 -36.05906553 201.86993222 -32.1875 205.875 C-28.88560521 207.57311732 -26.66155273 207.50504176 -23 207 C-18.69005878 204.1538124 -16.55055117 201.87753519 -15 197 C-14.56562104 192.86244916 -14.62977129 188.72067755 -14.625 184.5625 C-14.60050781 183.44294922 -14.57601563 182.32339844 -14.55078125 181.16992188 C-14.52460847 173.81973267 -15.2261239 169.82502078 -20.53125 164.44799805 C-22.80230888 162.22646899 -25.12512254 160.06870078 -27.48632812 157.94335938 C-30.53594583 155.04674416 -31.87737522 153.42188237 -33.08203125 149.27734375 C-33 146 -33 146 -31.98046875 144.07421875 C-29.05290848 142.48629158 -26.61396801 142.71443659 -23.3125 142.8125 C-21.54326172 142.85310547 -21.54326172 142.85310547 -19.73828125 142.89453125 C-18.83464844 142.92933594 -17.93101562 142.96414063 -17 143 C-18.53924429 138.86093455 -21.22749781 137.09046488 -24.75 134.5625 C-25.837898 133.76782767 -26.92514527 132.97226367 -28.01171875 132.17578125 C-28.99785156 131.45777344 -29.98398437 130.73976563 -31 130 C-34.83999093 127.11072249 -37.94430443 124.45400708 -40 120 C-40 118.68 -40 117.36 -40 116 C-40.5875708 115.72164307 -41.1751416 115.44328613 -41.78051758 115.15649414 C-43.86187262 114.07197332 -45.63392993 112.89697559 -47.51171875 111.49609375 C-64.75309945 98.84532964 -84.68675985 85.88719135 -107 87 C-109.74250734 87.70105895 -111.54999753 88.5416652 -114 90 C-114 90.66 -114 91.32 -114 92 C-107.32301551 96.1101632 -97.42985247 94.38229813 -90 93 C-95.51762525 100.26003322 -102.31643488 105.05596081 -111 108 C-113.5703125 108.30078125 -113.5703125 108.30078125 -116.125 108.3125 C-116.97320312 108.32925781 -117.82140625 108.34601563 -118.6953125 108.36328125 C-121.48697219 107.92323998 -122.31711998 107.23164524 -124 105 C-125.54753844 100.35738467 -125.62022941 95.84468085 -125 91 C-123.8359705 89.35095821 -122.66078259 87.70508527 -121.37109375 86.15234375 C-116.15586028 77.96546728 -115.74462481 66.52474429 -115 57.125 C-113.60378834 39.82929271 -113.60378834 39.82929271 -106.875 33.9375 C-103.46422048 31.63893119 -101.70285686 30.90843695 -97.6875 30.625 C-93.67518426 30.23464711 -91.44823838 29.08709165 -88 27 C-82.77731937 26.43025302 -79.36627587 27.05750974 -75 30 C-70.930378 34.64002724 -68.86281331 38.6857625 -68.75 44.9375 C-68.71132813 46.21947266 -68.71132813 46.21947266 -68.671875 47.52734375 C-69.06871346 50.517805 -69.90684202 51.85291992 -72 54 C-75.5572204 54.52979878 -77.31593299 54.43204232 -80.375 52.5 C-81.179375 51.7575 -81.179375 51.7575 -82 51 C-81.195625 50.2575 -80.39125 49.515 -79.5625 48.75 C-77.1039839 46.11159248 -76.6181353 45.32514161 -76 42 C-84.67380875 42.26444539 -91.84600437 42.62441103 -98.70703125 48.44921875 C-100.30642948 50.03967833 -100.30642948 50.03967833 -100.0625 52.9375 C-98.15572087 62.49168052 -93.00216307 70.58254865 -85 76 C-75.2305249 82.48921338 -64.55445431 86.99424995 -53.77026367 91.52416992 C-46.51032806 94.63572074 -40.29578478 98.24443529 -34 103 C-27.21988803 107.8424204 -27.21988803 107.8424204 -19 108 C-12.63561678 105.19967138 -10.55868056 100.10617392 -8 94 C-5.21676937 85.65030812 -5.3887082 72.96357066 -9.125 65 C-12.42768374 59.70077863 -17.08752953 56.81922168 -23 55 C-25.58517587 54.49940084 -25.58517587 54.49940084 -28 55 C-31.10454909 58.16468563 -31.39589934 60.72550857 -31.5625 65.0625 C-31.7919684 70.6879526 -31.7919684 70.6879526 -34 74 C-39.45780927 73.61015648 -42.15539941 71.84460059 -46 68 C-48.86086769 63.61333621 -49.82198764 60.20592173 -49 55 C-45.89083745 49.97352054 -41.61763588 45.88854215 -35.7734375 44.453125 C-28.67833184 43.29392464 -20.68591657 42.35480656 -14.375 46.3125 C-13.22510446 47.17614495 -12.09561055 48.06845296 -11 49 C-8.21654464 51.16490972 -6.428256 52.23501726 -3 53 C-3.02270413 44.91733034 -3.0764057 38.63677083 -8.52734375 32.35546875 C-11.13067763 29.95929672 -12.94582974 29.88623334 -16.375 29.9375 C-17.14585937 29.94652344 -17.91671875 29.95554688 -18.7109375 29.96484375 C-19.84402344 29.98224609 -19.84402344 29.98224609 -21 30 C-22.32 30 -23.64 30 -25 30 C-25.46302037 26.75885744 -25.72628346 24.1625856 -23.93359375 21.29296875 C-19.65369935 16.71273088 -14.39362334 13.52908105 -8.97607422 10.45947266 C-4.3179564 7.68620185 -2.38118076 4.86871699 0 0 Z " fill="#FBFBFB" transform="translate(479,175)"/>
<path d="M0 0 C0.66 0 1.32 0 2 0 C3.99792638 6.08589758 5.99129025 12.17327546 7.98144531 18.26171875 C8.65942364 20.33400534 9.33845697 22.40594707 10.01855469 24.47753906 C10.99429547 27.45027702 11.96627133 30.42422281 12.9375 33.3984375 C13.24373291 34.32868744 13.54996582 35.25893738 13.86547852 36.21737671 C14.14576904 37.07811798 14.42605957 37.93885925 14.71484375 38.82568359 C14.96355225 39.58513275 15.21226074 40.34458191 15.46850586 41.12704468 C16 43 16 43 16 45 C32.17 45 48.34 45 65 45 C62.32811971 47.67188029 60.18780416 49.72147502 57.19921875 51.84765625 C56.47605469 52.36561768 55.75289062 52.8835791 55.0078125 53.41723633 C53.85925781 54.23164185 53.85925781 54.23164185 52.6875 55.0625 C51.07634808 56.21287693 49.46567937 57.36393088 47.85546875 58.515625 C47.0464209 59.09376953 46.23737305 59.67191406 45.40380859 60.26757812 C43.10445149 61.92472194 40.82399014 63.60409246 38.55078125 65.296875 C37.86604736 65.80597412 37.18131348 66.31507324 36.47583008 66.83959961 C35.18001632 67.80557569 33.88678429 68.77502682 32.59643555 69.74829102 C28.22079941 73 28.22079941 73 26 73 C26.19110352 73.5983667 26.38220703 74.1967334 26.57910156 74.81323242 C33.27656927 95.79419851 33.27656927 95.79419851 36.15234375 105.29296875 C37.19727938 108.63002125 38.36378171 111.91778835 39.58203125 115.1953125 C40 117 40 117 39 120 C38.51869629 119.64397705 38.03739258 119.2879541 37.54150391 118.92114258 C33.50251125 115.93511502 29.45783749 112.95720076 25.40625 109.98828125 C21.87659267 107.39761958 18.3804463 104.76996627 14.90625 102.10546875 C13.31255684 100.90357047 11.71880904 99.70174462 10.125 98.5 C9.38330566 97.91839111 8.64161133 97.33678223 7.87744141 96.73754883 C4.02665231 93.65841712 4.02665231 93.65841712 -0.63671875 93.375 C-3.48632502 95.33439869 -6.23171471 97.34356078 -8.9375 99.5 C-18.26682716 106.83490217 -27.81523717 113.8891423 -38 120 C-37.04778167 115.15955683 -35.93345428 110.61582245 -34.1875 106 C-31.58789838 99.10329571 -29.6047647 92.04283509 -27.56835938 84.96484375 C-26.41186251 80.96678241 -25.20399763 76.98395965 -24 73 C-24.5882959 72.71874268 -25.1765918 72.43748535 -25.78271484 72.14770508 C-27.81753864 71.09444515 -29.61125615 69.96129994 -31.4765625 68.63671875 C-32.13922119 68.16790283 -32.80187988 67.69908691 -33.48461914 67.21606445 C-34.54410767 66.45942505 -34.54410767 66.45942505 -35.625 65.6875 C-36.35904053 65.16567139 -37.09308105 64.64384277 -37.84936523 64.10620117 C-40.23528867 62.40744385 -42.61765542 60.70377178 -45 59 C-45.84288574 58.39961914 -46.68577148 57.79923828 -47.55419922 57.18066406 C-50.05981813 55.3952259 -52.56177196 53.60478025 -55.0625 51.8125 C-55.85414551 51.24813232 -56.64579102 50.68376465 -57.46142578 50.10229492 C-58.18700684 49.57998291 -58.91258789 49.0576709 -59.66015625 48.51953125 C-60.30605713 48.05651611 -60.95195801 47.59350098 -61.61743164 47.11645508 C-62.0736792 46.7480249 -62.52992676 46.37959473 -63 46 C-63 45.67 -63 45.34 -63 45 C-46.83 45 -30.66 45 -14 45 C-12.515 39.555 -12.515 39.555 -11 34 C-10.12035596 31.15336309 -9.22839665 28.31872301 -8.30078125 25.48828125 C-7.94091377 24.37962959 -7.94091377 24.37962959 -7.57377625 23.24858093 C-6.82243399 20.93575946 -6.06754522 18.62411489 -5.3125 16.3125 C-4.79598632 14.72468666 -4.27970853 13.13679656 -3.76367188 11.54882812 C-2.51182944 7.6983294 -1.25680972 3.84888011 0 0 Z " fill="#F9F9F9" transform="translate(815,217)"/>
<path d="M0 0 C0.66 0 1.32 0 2 0 C3.99792638 6.08589758 5.99129025 12.17327546 7.98144531 18.26171875 C8.65942364 20.33400534 9.33845697 22.40594707 10.01855469 24.47753906 C10.99429547 27.45027702 11.96627133 30.42422281 12.9375 33.3984375 C13.24373291 34.32868744 13.54996582 35.25893738 13.86547852 36.21737671 C14.14576904 37.07811798 14.42605957 37.93885925 14.71484375 38.82568359 C14.96355225 39.58513275 15.21226074 40.34458191 15.46850586 41.12704468 C16 43 16 43 16 45 C32.17 45 48.34 45 65 45 C62.32811971 47.67188029 60.18780416 49.72147502 57.19921875 51.84765625 C56.47605469 52.36561768 55.75289063 52.8835791 55.0078125 53.41723633 C53.85925781 54.23164185 53.85925781 54.23164185 52.6875 55.0625 C51.07634808 56.21287693 49.46567937 57.36393088 47.85546875 58.515625 C47.0464209 59.09376953 46.23737305 59.67191406 45.40380859 60.26757812 C43.10445149 61.92472194 40.82399014 63.60409246 38.55078125 65.296875 C37.86604736 65.80597412 37.18131348 66.31507324 36.47583008 66.83959961 C35.18001632 67.80557569 33.88678429 68.77502682 32.59643555 69.74829102 C28.22079941 73 28.22079941 73 26 73 C26.19110352 73.5983667 26.38220703 74.1967334 26.57910156 74.81323242 C33.27656927 95.79419851 33.27656927 95.79419851 36.15234375 105.29296875 C37.19727938 108.63002125 38.36378171 111.91778835 39.58203125 115.1953125 C40 117 40 117 39 120 C38.51869629 119.64397705 38.03739258 119.2879541 37.54150391 118.92114258 C33.50251125 115.93511502 29.45783749 112.95720076 25.40625 109.98828125 C21.87659267 107.39761958 18.3804463 104.76996627 14.90625 102.10546875 C13.31255684 100.90357047 11.71880904 99.70174462 10.125 98.5 C9.38330566 97.91839111 8.64161133 97.33678223 7.87744141 96.73754883 C4.02665231 93.65841712 4.02665231 93.65841712 -0.63671875 93.375 C-3.48632502 95.33439869 -6.23171471 97.34356078 -8.9375 99.5 C-18.26682716 106.83490217 -27.81523717 113.8891423 -38 120 C-37.04778167 115.15955683 -35.93345428 110.61582245 -34.1875 106 C-31.58789838 99.10329571 -29.6047647 92.04283509 -27.56835938 84.96484375 C-26.41186251 80.96678241 -25.20399763 76.98395965 -24 73 C-24.5882959 72.71874268 -25.1765918 72.43748535 -25.78271484 72.14770508 C-27.81753864 71.09444515 -29.61125615 69.96129994 -31.4765625 68.63671875 C-32.13922119 68.16790283 -32.80187988 67.69908691 -33.48461914 67.21606445 C-34.54410767 66.45942505 -34.54410767 66.45942505 -35.625 65.6875 C-36.35904053 65.16567139 -37.09308105 64.64384277 -37.84936523 64.10620117 C-40.23528867 62.40744385 -42.61765542 60.70377178 -45 59 C-45.84288574 58.39961914 -46.68577148 57.79923828 -47.55419922 57.18066406 C-50.05981813 55.3952259 -52.56177196 53.60478025 -55.0625 51.8125 C-55.85414551 51.24813232 -56.64579102 50.68376465 -57.46142578 50.10229492 C-58.18700684 49.57998291 -58.91258789 49.0576709 -59.66015625 48.51953125 C-60.30605713 48.05651611 -60.95195801 47.59350098 -61.61743164 47.11645508 C-62.0736792 46.7480249 -62.52992676 46.37959473 -63 46 C-63 45.67 -63 45.34 -63 45 C-46.83 45 -30.66 45 -14 45 C-12.515 39.555 -12.515 39.555 -11 34 C-10.12035596 31.15336309 -9.22839665 28.31872301 -8.30078125 25.48828125 C-7.94091377 24.37962959 -7.94091377 24.37962959 -7.57377625 23.24858093 C-6.82243399 20.93575946 -6.06754522 18.62411489 -5.3125 16.3125 C-4.79598632 14.72468666 -4.27970853 13.13679656 -3.76367188 11.54882812 C-2.51182944 7.6983294 -1.25680972 3.84888011 0 0 Z " fill="#F9F9F9" transform="translate(143,217)"/>
<path d="M0 0 C0.66 0 1.32 0 2 0 C3.99784982 6.22836794 5.99122252 12.45815558 7.98144531 18.68896484 C8.65944326 20.80973984 9.3384767 22.93018407 10.01855469 25.05029297 C10.994244 28.0925662 11.96623901 31.13599806 12.9375 34.1796875 C13.24373291 35.13181122 13.54996582 36.08393494 13.86547852 37.06491089 C14.14576904 37.94567291 14.42605957 38.82643494 14.71484375 39.73388672 C14.96355225 40.51110077 15.21226074 41.28831482 15.46850586 42.08908081 C16 44 16 44 16 46 C31.84 46 47.68 46 64 46 C58.37521891 51.62478109 58.37521891 51.62478109 55.06640625 53.98046875 C54.34114746 54.50036377 53.61588867 55.02025879 52.86865234 55.5559082 C52.10762207 56.0943335 51.3465918 56.63275879 50.5625 57.1875 C49.77568848 57.74977295 48.98887695 58.3120459 48.17822266 58.89135742 C46.569967 60.03994898 44.96026886 61.18652349 43.34912109 62.33105469 C41.13184882 63.90632732 38.91857865 65.48701624 36.70703125 67.0703125 C33.47428493 69.38434158 30.23823975 71.69366526 27 74 C27.61676276 79.49463062 28.94436743 84.4340517 30.6875 89.671875 C30.95006592 90.47610901 31.21263184 91.28034302 31.4831543 92.10894775 C32.31668453 94.65777918 33.15820626 97.20388731 34 99.75 C34.56563408 101.47508676 35.13074343 103.20034566 35.6953125 104.92578125 C37.45164216 110.28780612 39.21573219 115.64719658 41 121 C38.21171237 119.68002302 35.75675769 118.20470507 33.26953125 116.3828125 C32.55692139 115.86340088 31.84431152 115.34398926 31.11010742 114.80883789 C29.97279175 113.97533813 29.97279175 113.97533813 28.8125 113.125 C27.20061099 111.95951071 25.58862944 110.79414941 23.9765625 109.62890625 C20.69829852 107.24956255 17.44746216 104.83808568 14.2109375 102.40234375 C12.70329807 101.28882814 11.19549216 100.17553788 9.6875 99.0625 C8.98923096 98.52447754 8.29096191 97.98645508 7.5715332 97.43212891 C3.92213004 94.61072116 3.92213004 94.61072116 -0.4609375 94.31640625 C-4.1427454 96.7577281 -7.75729756 99.2517549 -11.3125 101.875 C-12.09415527 102.44565186 -12.87581055 103.01630371 -13.68115234 103.60424805 C-21.50639893 109.33251768 -29.26467633 115.1510836 -37 121 C-37.66 120.67 -38.32 120.34 -39 120 C-35.44287109 109.32861328 -31.88574219 98.65722656 -28.32861328 87.98583984 C-28.10277054 87.30539612 -27.8769278 86.62495239 -27.64424133 85.92388916 C-27.05183748 84.15480156 -26.44143989 82.39176623 -25.8293457 80.62939453 C-24.81501374 77.41351132 -24.62961207 76.10424792 -26 73 C-28.27967185 70.86645073 -30.83094742 69.20803831 -33.4375 67.5 C-34.97864304 66.45166432 -36.51897926 65.40214177 -38.05859375 64.3515625 C-38.86409668 63.80790039 -39.66959961 63.26423828 -40.49951172 62.70410156 C-44.71613524 59.83044093 -48.85875089 56.85579609 -53 53.875 C-53.7830249 53.31876953 -54.5660498 52.76253906 -55.37280273 52.18945312 C-56.09540283 51.67060547 -56.81800293 51.15175781 -57.5625 50.6171875 C-58.20316406 50.15940918 -58.84382813 49.70163086 -59.50390625 49.22998047 C-61 48 -61 48 -62 46 C-46.16 46 -30.32 46 -14 46 C-12.515 40.06 -12.515 40.06 -11 34 C-10.1305237 31.11316892 -9.24541455 28.25133695 -8.30078125 25.390625 C-7.94091377 24.28409576 -7.94091377 24.28409576 -7.57377625 23.1552124 C-6.82383772 20.85220698 -6.06830145 18.55108708 -5.3125 16.25 C-4.79584776 14.66678938 -4.27956915 13.08345679 -3.76367188 11.5 C-2.51340918 7.66524955 -1.25813102 3.8321758 0 0 Z " fill="#FBFBFB" transform="translate(479,34)"/>
<path d="M0 0 C2 1 2 1 2.77200317 2.73924255 C3.13840408 3.87269859 3.13840408 3.87269859 3.51220703 5.02905273 C3.7923465 5.88341415 4.07248596 6.73777557 4.3611145 7.61802673 C4.65702484 8.54716385 4.95293518 9.47630096 5.2578125 10.43359375 C5.56572723 11.38186539 5.87364197 12.33013702 6.19088745 13.30714417 C6.84158442 15.31600197 7.48862733 17.32604643 8.13232422 19.3371582 C9.12048889 22.42341084 10.11977963 25.50588221 11.12109375 28.58789062 C11.75065746 30.53624601 12.37958514 32.48480706 13.0078125 34.43359375 C13.3077713 35.36070663 13.6077301 36.28781952 13.91677856 37.24302673 C14.19061371 38.10054031 14.46444885 38.95805389 14.74658203 39.84155273 C14.98925812 40.59798569 15.2319342 41.35441864 15.48196411 42.1337738 C16 44 16 44 16 46 C31.84 46 47.68 46 64 46 C60.2445034 49.7554966 57.08733797 52.51731735 52.8125 55.5 C51.58678014 56.36132572 50.36154604 57.223343 49.13671875 58.0859375 C48.47978027 58.54709961 47.8228418 59.00826172 47.14599609 59.48339844 C43.1157782 62.33160248 39.12269319 65.23141651 35.125 68.125 C33.56512264 69.25262973 32.00522836 70.38023604 30.4453125 71.5078125 C29.29683664 72.33848864 28.14838346 73.16919613 27 74 C27.61095494 79.51589419 28.96989797 84.42890187 30.7578125 89.671875 C31.30613293 91.32156694 31.85430575 92.97130796 32.40234375 94.62109375 C33.26639499 97.19844361 34.13336722 99.7747668 35.00341797 102.35009766 C35.84580968 104.85072585 36.67734433 107.35476646 37.5078125 109.859375 C37.77232208 110.6312616 38.03683167 111.40314819 38.30935669 112.19842529 C40.11316675 117.66049976 40.11316675 117.66049976 39 121 C38.25878906 120.41734375 37.51757812 119.8346875 36.75390625 119.234375 C28.3439613 112.67114433 19.72241934 106.44477573 10.94628906 100.38037109 C9.63455828 99.45004924 8.34465132 98.48826887 7.07714844 97.49853516 C3.93118896 94.80053483 3.93118896 94.80053483 0.04858398 94.1965332 C-2.29070006 95.11401429 -4.01098451 96.26232456 -6.01953125 97.7734375 C-7.17195312 98.63267822 -7.17195312 98.63267822 -8.34765625 99.50927734 C-9.56775391 100.43281006 -9.56775391 100.43281006 -10.8125 101.375 C-11.65039062 101.99971191 -12.48828125 102.62442383 -13.3515625 103.26806641 C-16.67744355 105.74796747 -19.99321296 108.241126 -23.30615234 110.73828125 C-25.36670719 112.28936588 -27.43304328 113.83246415 -29.5 115.375 C-30.11593018 115.84470215 -30.73186035 116.3144043 -31.36645508 116.79833984 C-35.66143908 120 -35.66143908 120 -39 120 C-38.7369104 119.20193184 -38.7369104 119.20193184 -38.46850586 118.38774109 C-36.64653333 112.85797035 -34.8307426 107.32619772 -33.01855469 101.79321289 C-32.34110847 99.72758651 -31.66207909 97.66247865 -30.98144531 95.59790039 C-30.00430899 92.6330181 -29.03285108 89.66632757 -28.0625 86.69921875 C-27.75626709 85.7741301 -27.45003418 84.84904144 -27.13452148 83.8959198 C-26.71408569 82.60492119 -26.71408569 82.60492119 -26.28515625 81.2878418 C-26.03644775 80.53061325 -25.78773926 79.7733847 -25.53149414 78.99320984 C-24.87117512 76.86069001 -24.87117512 76.86069001 -25 74 C-26.92371673 72.39793365 -28.80424507 71.01499704 -30.875 69.625 C-32.15430597 68.74053741 -33.4329165 67.85506833 -34.7109375 66.96875 C-35.40026367 66.494375 -36.08958984 66.02 -36.79980469 65.53125 C-40.74190825 62.7876999 -44.61595272 59.94983439 -48.5 57.125 C-54.44323227 52.79794274 -54.44323227 52.79794274 -60.53125 48.6796875 C-61.3459375 48.12539063 -62.160625 47.57109375 -63 47 C-63 46.67 -63 46.34 -63 46 C-46.83 46 -30.66 46 -14 46 C-13.34 43.03 -12.68 40.06 -12 37 C-11.58549011 35.51902988 -11.1500636 34.04327928 -10.67138672 32.58178711 C-10.43128876 31.84169907 -10.1911908 31.10161102 -9.94381714 30.33909607 C-9.69165436 29.5762178 -9.43949158 28.81333954 -9.1796875 28.02734375 C-8.91616486 27.21882462 -8.65264221 26.41030548 -8.38113403 25.57728577 C-7.5496985 23.02938146 -6.7124609 20.48342939 -5.875 17.9375 C-5.30560253 16.19609005 -4.73658862 14.45455464 -4.16796875 12.71289062 C-2.78307019 8.47379889 -1.39296966 4.23644607 0 0 Z " fill="#FBFBFB" transform="translate(868,394)"/>
<path d="M0 0 C1.67561437 2.51342155 2.51098595 4.17482685 3.42041016 6.96484375 C3.68052887 7.75576416 3.94064758 8.54668457 4.20864868 9.36157227 C4.61970352 10.63665649 4.61970352 10.63665649 5.0390625 11.9375 C5.32478119 12.81398193 5.61049988 13.69046387 5.90487671 14.59350586 C6.50721669 16.44538858 7.10722751 18.29803027 7.70507812 20.15136719 C8.62215046 22.99117612 9.54882451 25.8277225 10.4765625 28.6640625 C11.0604752 30.46335375 11.64382758 32.26282696 12.2265625 34.0625 C12.50464752 34.91255615 12.78273254 35.7626123 13.06924438 36.63842773 C13.32305878 37.42934814 13.57687317 38.22026855 13.83837891 39.03515625 C14.0632901 39.7300415 14.28820129 40.42492676 14.51992798 41.14086914 C15 43 15 43 15 46 C31.17 46 47.34 46 64 46 C51.69624027 55.84300778 39.15064289 65.31224497 26 74 C27.3793895 80.6795068 29.19649695 87.08198972 31.3125 93.5625 C31.93525206 95.49337473 32.55764473 97.4243654 33.1796875 99.35546875 C33.48616211 100.30341309 33.79263672 101.25135742 34.10839844 102.22802734 C35.40839398 106.26968928 36.67595558 110.3212 37.9375 114.375 C38.14866455 115.05248291 38.3598291 115.72996582 38.57739258 116.42797852 C39.0521426 117.9518152 39.52616823 119.47587754 40 121 C37.08086156 119.63029118 34.56495112 118.05340343 31.98046875 116.12890625 C31.21234863 115.55922119 30.44422852 114.98953613 29.65283203 114.40258789 C28.43249268 113.49174438 28.43249268 113.49174438 27.1875 112.5625 C26.34815918 111.9430249 25.50881836 111.3235498 24.64404297 110.68530273 C20.59450642 107.69398473 16.56866407 104.67858624 12.58984375 101.59375 C11.91735596 101.07997803 11.24486816 100.56620605 10.55200195 100.03686523 C9.29476272 99.07494103 8.04664022 98.10094759 6.80932617 97.11352539 C4.32257748 95.224734 2.62976458 94.01547808 -0.54296875 93.9375 C-3.78292574 95.33856248 -6.19098496 97.2174292 -8.9375 99.4375 C-10.08558589 100.34974136 -11.23538523 101.25982964 -12.38671875 102.16796875 C-13.27496338 102.87058838 -13.27496338 102.87058838 -14.18115234 103.58740234 C-17.14584276 105.88991224 -20.1907761 108.07543118 -23.25 110.25 C-23.83338135 110.66483643 -24.4167627 111.07967285 -25.01782227 111.50708008 C-29.61996209 114.7617436 -34.28294831 117.91507878 -39 121 C-37.8915451 115.11511217 -36.25691259 109.52894888 -34.36328125 103.859375 C-34.11875214 103.12489136 -33.87422302 102.39040771 -33.62228394 101.63366699 C-32.59431106 98.5560885 -31.56149727 95.48031074 -30.5144043 92.40917969 C-29.74502798 90.14600038 -28.99065686 87.87825304 -28.23828125 85.609375 C-27.9987825 84.91970642 -27.75928375 84.23003784 -27.51252747 83.51947021 C-26.24771451 79.66746268 -25.5739588 76.86619492 -27 73 C-28.96206439 71.27750761 -30.77084005 69.9138123 -32.9375 68.5 C-34.20511258 67.63381483 -35.47200235 66.76657122 -36.73828125 65.8984375 C-37.42100098 65.43663086 -38.1037207 64.97482422 -38.80712891 64.49902344 C-42.79364846 61.77388092 -46.70666875 58.9468681 -50.625 56.125 C-51.39448975 55.57779297 -52.16397949 55.03058594 -52.95678711 54.46679688 C-53.68518799 53.94408203 -54.41358887 53.42136719 -55.1640625 52.8828125 C-55.80811035 52.42277832 -56.4521582 51.96274414 -57.11572266 51.48876953 C-59.22035042 49.8259009 -61.10334636 47.89665364 -63 46 C-47.16 46 -31.32 46 -15 46 C-13.515 40.555 -13.515 40.555 -12 35 C-11.13127952 32.16561269 -10.25107225 29.34232489 -9.3359375 26.5234375 C-9.09839752 25.78670807 -8.86085754 25.04997864 -8.61611938 24.29092407 C-8.1216361 22.75978718 -7.62589601 21.22905562 -7.12890625 19.69873047 C-6.36560957 17.34605632 -5.60839739 14.99147853 -4.8515625 12.63671875 C-4.36754792 11.14050836 -3.88318612 9.64441024 -3.3984375 8.1484375 C-3.17239838 7.44439789 -2.94635925 6.74035828 -2.71347046 6.01498413 C-1.11480655 1.11480655 -1.11480655 1.11480655 0 0 Z " fill="#FBFBFB" transform="translate(91,394)"/>
<path d="M0 0 C2.6582344 2.6582344 3.05534046 5.01209401 4.125 8.625 C5.69877642 13.86721403 7.34599023 19.07454766 9.10546875 24.2578125 C9.46946777 25.3307959 9.8334668 26.4037793 10.20849609 27.50927734 C10.93747281 29.64913513 11.67078843 31.7875203 12.40869141 33.92431641 C12.74433105 34.91351074 13.0799707 35.90270508 13.42578125 36.921875 C13.88078003 38.24590332 13.88078003 38.24590332 14.3449707 39.59667969 C15 42 15 42 15 46 C31.17 46 47.34 46 64 46 C51.70191515 55.83846788 38.91090809 64.98793049 26 74 C27.66638984 80.56432169 29.61266483 87.01265983 31.734375 93.44140625 C31.97812866 94.1814389 32.22188232 94.92147156 32.47302246 95.68392944 C33.4905254 98.76663527 34.51119505 101.84822391 35.54052734 104.92700195 C36.29923233 107.20051698 37.04872625 109.47689952 37.796875 111.75390625 C38.15141754 112.80222374 38.15141754 112.80222374 38.51312256 113.87171936 C40.11348874 118.77302252 40.11348874 118.77302252 39 121 C38.00742187 120.24976563 37.01484375 119.49953125 35.9921875 118.7265625 C27.08811343 112.01293697 18.10135596 105.44353667 9 99 C8.41234863 98.52804199 7.82469727 98.05608398 7.21923828 97.56982422 C3.7201282 94.74787782 3.7201282 94.74787782 -0.56640625 93.91015625 C-3.77306517 95.34620414 -6.20343658 97.22749413 -8.9375 99.4375 C-10.08558589 100.34974136 -11.23538523 101.25982964 -12.38671875 102.16796875 C-13.27496338 102.87058838 -13.27496338 102.87058838 -14.18115234 103.58740234 C-17.14584276 105.88991224 -20.1907761 108.07543118 -23.25 110.25 C-23.83338135 110.66483643 -24.4167627 111.07967285 -25.01782227 111.50708008 C-29.61996209 114.7617436 -34.28294831 117.91507878 -39 121 C-36.75686258 111.05530408 -33.60115682 101.50794924 -30.3125 91.875 C-29.54588107 89.62304185 -28.78067858 87.37063803 -28.01908875 85.11697388 C-27.54919091 83.72699461 -27.07633653 82.33801044 -26.60017395 80.95016479 C-25.40004831 77.55138682 -25.40004831 77.55138682 -25 74 C-27.40225851 72.1667784 -29.81631237 70.44763708 -32.3125 68.75 C-33.86321496 67.67626174 -35.41264359 66.6006639 -36.9609375 65.5234375 C-38.18828613 64.67023926 -38.18828613 64.67023926 -39.44042969 63.79980469 C-43.81888479 60.72102073 -48.12961969 57.55144682 -52.4375 54.375 C-53.25968018 53.77139648 -54.08186035 53.16779297 -54.92895508 52.54589844 C-55.69361084 51.98161133 -56.4582666 51.41732422 -57.24609375 50.8359375 C-58.26207642 50.08642822 -58.26207642 50.08642822 -59.29858398 49.32177734 C-61 48 -61 48 -63 46 C-47.16 45.67 -31.32 45.34 -15 45 C-13.35 39.72 -11.7 34.44 -10 29 C-8.24879999 23.82565135 -6.48437195 18.65831307 -4.6875 13.5 C-4.22829303 12.17585842 -3.76930807 10.85163983 -3.31054688 9.52734375 C-2.2091922 6.35080502 -1.10566358 3.17504092 0 0 Z " fill="#FBFBFB" transform="translate(686,87)"/>
<path d="M0 0 C2.57197723 2.57197723 3.10424967 4.84364281 4.2421875 8.30078125 C4.45183136 8.93300095 4.66147522 9.56522064 4.87747192 10.21659851 C5.54894206 12.24675892 6.21191074 14.27958888 6.875 16.3125 C7.31328147 17.63884402 7.75207849 18.9650178 8.19140625 20.29101562 C10.89921768 28.49843878 13.45746516 36.73676178 16 45 C31.84 45.33 47.68 45.66 64 46 C61.3715368 48.6284632 59.39761533 50.56850733 56.453125 52.59375 C55.78031494 53.06135742 55.10750488 53.52896484 54.41430664 54.01074219 C53.34297485 54.7479248 53.34297485 54.7479248 52.25 55.5 C45.36886721 60.28153772 38.63307232 65.21750456 32.00292969 70.34179688 C27.21289325 74 27.21289325 74 25 74 C25.38333496 75.10400146 25.76666992 76.20800293 26.16162109 77.34545898 C27.59420986 81.47556981 29.02021782 85.60792833 30.44433594 89.7409668 C31.05942852 91.52315398 31.67626007 93.30474204 32.29492188 95.08569336 C33.18827388 97.65840303 34.07517084 100.23326409 34.9609375 102.80859375 C35.37199234 103.98572182 35.37199234 103.98572182 35.79135132 105.18663025 C37.57401054 110.39584776 38.91548364 115.6025918 40 121 C33.69759653 116.88581357 27.59737777 112.55807514 21.5625 108.0625 C19.89620958 106.83282334 18.22954654 105.60365142 16.5625 104.375 C13.92723149 102.42981817 11.30061675 100.47479815 8.6875 98.5 C7.82125 97.860625 6.955 97.22125 6.0625 96.5625 C5.35222656 96.02753906 4.64195312 95.49257812 3.91015625 94.94140625 C1.43770808 93.72287862 0.57494035 94.14208651 -2 95 C-3.75133251 95.97844198 -3.75133251 95.97844198 -5.44140625 97.23046875 C-6.42765991 97.93091309 -6.42765991 97.93091309 -7.43383789 98.64550781 C-8.13629639 99.15436523 -8.83875488 99.66322266 -9.5625 100.1875 C-10.6596936 100.97205566 -10.6596936 100.97205566 -11.77905273 101.77246094 C-20.58456765 108.09170189 -29.29828278 114.53891373 -38 121 C-39 119 -39 119 -38.36669922 116.65600586 C-38.01623535 115.68542236 -37.66577148 114.71483887 -37.3046875 113.71484375 C-36.92046631 112.63396484 -36.53624512 111.55308594 -36.14038086 110.43945312 C-35.72280518 109.28380859 -35.30522949 108.12816406 -34.875 106.9375 C-32.06481118 99.00362063 -29.29250581 91.08240152 -26.9375 83 C-26.73431152 82.30769287 -26.53112305 81.61538574 -26.32177734 80.90209961 C-25.32619631 77.50490645 -25.32619631 77.50490645 -25 74 C-26.41334972 72.69901671 -26.41334972 72.69901671 -28.3046875 71.41796875 C-29.38568726 70.64706909 -29.38568726 70.64706909 -30.48852539 69.8605957 C-31.27606201 69.30847412 -32.06359863 68.75635254 -32.875 68.1875 C-34.51695417 67.0182672 -36.1588804 65.84899517 -37.80078125 64.6796875 C-38.65365723 64.07608398 -39.5065332 63.47248047 -40.38525391 62.85058594 C-44.62145989 59.85241214 -48.84436554 56.83602388 -53.0625 53.8125 C-53.84157715 53.26037842 -54.6206543 52.70825684 -55.42333984 52.1394043 C-56.49962646 51.36850464 -56.49962646 51.36850464 -57.59765625 50.58203125 C-58.23195557 50.13061768 -58.86625488 49.6792041 -59.51977539 49.21411133 C-61 48 -61 48 -62 46 C-46.16 46 -30.32 46 -14 46 C-13.67 43.69 -13.34 41.38 -13 39 C-12.41426928 37.01122471 -11.77148239 35.03840544 -11.07421875 33.0859375 C-10.68943359 31.99410156 -10.30464844 30.90226562 -9.90820312 29.77734375 C-9.50537109 28.65457031 -9.10253906 27.53179687 -8.6875 26.375 C-5.57957629 17.64004472 -2.65802604 8.8832345 0 0 Z " fill="#FBFBFB" transform="translate(273,87)"/>
<path d="M0 0 C0.5775 0.226875 1.155 0.45375 1.75 0.6875 C2.23550515 9.2647577 0.01877142 16.79981244 -3.25 24.6875 C-4.9 24.3575 -6.55 24.0275 -8.25 23.6875 C-10.13614107 18.02907678 -10.20151132 11.28699618 -8 5.6875 C-4.33137045 -0.60157923 -4.33137045 -0.60157923 0 0 Z " fill="#070707" transform="translate(616.25,370.3125)"/>
<path d="M0 0 C3.12617111 0.22329794 4.26966142 1.23203424 6.6875 3.3125 C10.07937973 7.25441428 10.15244143 10.39547238 10.1875 15.5 C10.20167969 16.4384375 10.21585937 17.376875 10.23046875 18.34375 C9.99479903 21.05994337 9.38484654 22.67915046 8 25 C6.1015625 24.7265625 6.1015625 24.7265625 4 24 C2.78650559 21.29297401 1.85260334 18.81510451 1 16 C0.608125 14.845 0.21625 13.69 -0.1875 12.5 C-1.12767004 8.45003674 -1.21441753 5.14540566 -1 1 C-0.67 0.67 -0.34 0.34 0 0 Z " fill="#050505" transform="translate(343,370)"/>
</svg>
